Coordinates
version=1
nRows=26
nColumns=22
inDegrees=yes

Units are S.I. units (second, meters, Newtons, ...)
If the header above contains a line with 'inDegrees', this indicates whether rotational values are in degrees (yes) or radians (no).

endheader
time	pelvis_tilt	pelvis_list	pelvis_rotation	pelvis_tx	pelvis_ty	pelvis_tz	hip_flexion_r	hip_adduction_r	hip_rotation_r	knee_angle_r	ankle_angle_r	subtalar_angle_r	hip_flexion_l	hip_adduction_l	hip_rotation_l	knee_angle_l	ankle_angle_l	subtalar_angle_l	lumbar_extension	lumbar_bending	lumbar_rotation
      1.45000000	      6.32217882	     -2.93670734	      6.31237679	      1.19194865	      0.94513121	     -0.10920668	     -7.78357554	      4.91955168	    -10.59669305	     -7.16168919	      9.05447108	      0.58229948	     -5.01474732	     -4.00985746	    -10.88888975	    -13.88993878	     20.75387641	     -7.45844803	    -11.93095983	      3.58588266	     -9.39976025
      1.46000000	      6.32664829	     -2.93436591	      6.32464049	      1.19191726	      0.94515249	     -0.10925467	     -7.78434185	      4.91622092	    -10.59261341	     -7.16561412	      9.05375723	      0.58259229	     -5.01790964	     -4.00785984	    -10.89196791	    -13.88714509	     20.75325456	     -7.45878148	    -11.92878024	      3.59138349	     -9.39957454
      1.47000000	      6.38770644	     -2.91851068	      6.33287873	      1.19190429	      0.94527170	     -0.10930239	     -7.86336640	      4.90696761	    -10.56552070	     -7.14427351	      9.04297922	      0.60004962	     -5.11472966	     -3.98992498	    -10.88070078	    -13.82644891	     20.70990379	     -7.45005710	    -11.99728473	      3.58865991	     -9.42085136
      1.48000000	      6.39116770	     -2.91684982	      6.34189292	      1.19186387	      0.94528979	     -0.10933804	     -7.86322049	      4.90416979	    -10.56139450	     -7.14793068	      9.04205774	      0.60030157	     -5.11666149	     -3.98870400	    -10.88319680	    -13.82377553	     20.70973514	     -7.44947305	    -11.99706270	      3.59326358	     -9.42166936
      1.49000000	      6.40456406	     -2.91837070	      6.34291525	      1.19180152	      0.94532585	     -0.10935220	     -7.86635113	      4.90537179	    -10.53777167	     -7.16409209	      9.03662016	      0.60207796	     -5.13280367	     -3.99042998	    -10.88832755	    -13.81210403	     20.70288163	     -7.44223394	    -12.01427013	      3.60237205	     -9.44741394
      1.50000000	      6.40656435	     -2.91829543	      6.34341976	      1.19175606	      0.94534204	     -0.10935604	     -7.86592136	      4.90454888	    -10.53725604	     -7.16382900	      9.03654688	      0.60210419	     -5.13276727	     -3.99077410	    -10.88850905	    -13.81164249	     20.70271829	     -7.44206037	    -12.01393495	      3.60290767	     -9.44743330
      1.51000000	      6.42983817	     -2.92456792	      6.34014465	      1.19167560	      0.94539045	     -0.10936927	     -7.87881997	      4.91079715	    -10.49175132	     -7.18152325	      9.02793725	      0.60378960	     -5.15878955	     -3.99766337	    -10.89605098	    -13.80034605	     20.68466858	     -7.42854065	    -12.04693321	      3.62323962	     -9.47300796
      1.52000000	      6.43200590	     -2.92456157	      6.33990067	      1.19162333	      0.94540757	     -0.10936784	     -7.87896354	      4.91034552	    -10.49137961	     -7.18124025	      9.02785515	      0.60380847	     -5.15819328	     -3.99779192	    -10.89619883	    -13.79975492	     20.68449569	     -7.42837007	    -12.04654047	      3.62372670	     -9.47294462
      1.53000000	      6.50101713	     -2.93892806	      6.31305962	      1.19157927	      0.94553158	     -0.10933481	     -7.97149911	      4.93465278	    -10.38938702	     -7.13964489	      8.99502916	      0.61001072	     -5.24987508	     -4.01672231	    -10.93813147	    -13.77011644	     20.63594723	     -7.38506923	    -12.13003867	      3.65399026	     -9.45174121
      1.54000000	      6.51182582	     -2.93862580	      6.30727647	      1.19150517	      0.94556249	     -0.10932636	     -7.97232380	      4.93291670	    -10.37440225	     -7.15551980	      8.98795905	      0.61083032	     -5.26121877	     -4.01535672	    -10.94022545	    -13.76332320	     20.63600917	     -7.38010642	    -12.14507278	      3.65941240	     -9.47420525
      1.55000000	      6.51653594	     -2.94037877	      6.29687264	      1.19143920	      0.94558354	     -0.10930476	     -7.97319076	      4.93296739	    -10.37050998	     -7.15542487	      8.98703867	      0.61116293	     -5.26349196	     -4.01564465	    -10.93961742	    -13.76325414	     20.63331429	     -7.37963877	    -12.15050697	      3.66525903	     -9.48173774
      1.56000000	      6.53570374	     -2.94768375	      6.29409052	      1.19136977	      0.94562751	     -0.10928526	     -7.98625503	      4.94310860	    -10.33397186	     -7.16359231	      8.98086476	      0.61303770	     -5.28264821	     -4.02594670	    -10.94935907	    -13.75667622	     20.61688124	     -7.37936951	    -12.17266764	      3.68152294	     -9.51621407
      1.57000000	      6.57775109	     -2.95210754	      6.27806905	      1.19134168	      0.94571017	     -0.10922582	     -8.05933484	      4.95951190	    -10.26896954	     -7.10244466	      8.94946536	      0.62084744	     -5.33549843	     -4.03562883	    -10.96971002	    -13.74427641	     20.59717318	     -7.36254885	    -12.21674993	      3.68916865	     -9.51554876
      1.58000000	      6.58071585	     -2.95289390	      6.26623511	      1.19129424	      0.94573244	     -0.10916469	     -8.05933767	      4.96164417	    -10.26730794	     -7.10096106	      8.94858880	      0.62110728	     -5.33769192	     -4.03785124	    -10.97114142	    -13.74296239	     20.59719524	     -7.36146845	    -12.21505257	      3.68694784	     -9.52631966
      1.59000000	      6.58240053	     -2.95218142	      6.25813871	      1.19126727	      0.94575179	     -0.10911277	     -8.06811098	      4.96474398	    -10.23689237	     -7.08492737	      8.94116462	      0.62216658	     -5.34465922	     -4.03980900	    -10.99957945	    -13.72958125	     20.59717085	     -7.35191011	    -12.20548208	      3.68937564	     -9.57898226
      1.60000000	      6.58108932	     -2.95193415	      6.24466311	      1.19125381	      0.94577148	     -0.10902680	     -8.08937168	      4.97232439	    -10.18949774	     -7.03753161	      8.92359783	      0.62247059	     -5.34223815	     -4.04583029	    -11.03518769	    -13.73182161	     20.59633841	     -7.32697959	    -12.18885065	      3.68627813	     -9.61551163
      1.61000000	      6.58054720	     -2.96876912	      6.21460244	      1.19120572	      0.94578855	     -0.10888821	     -8.10844082	      4.99977390	    -10.09554839	     -6.98453869	      8.86504708	      0.61522871	     -5.32901880	     -4.07431088	    -11.09517504	    -13.75660901	     20.59722636	     -7.23856224	    -12.17832613	      3.69627100	     -9.60956109
      1.62000000	      6.57829922	     -2.96985757	      6.19310954	      1.19116680	      0.94580917	     -0.10878659	     -8.10678408	      5.00382999	    -10.07857177	     -6.97664439	      8.85480989	      0.61163478	     -5.33050328	     -4.07962241	    -11.13027944	    -13.74732907	     20.59741525	     -7.22126134	    -12.16125286	      3.69829900	     -9.65070265
      1.63000000	      6.56368724	     -2.98525262	      6.15100147	      1.19110466	      0.94581480	     -0.10861465	     -8.10713289	      5.02839948	     -9.97215937	     -6.92587058	      8.78386174	      0.58159393	     -5.29267990	     -4.10932395	    -11.22731617	    -13.79185936	     20.58562203	     -7.13065960	    -12.13140967	      3.70609568	     -9.64841619
      1.64000000	      6.56441425	     -2.99037763	      6.11961802	      1.19102058	      0.94584721	     -0.10849853	     -8.09796700	      5.03682050	     -9.94380816	     -6.92746420	      8.76174981	      0.56872489	     -5.29331073	     -4.11740655	    -11.26805511	    -13.78613325	     20.58214032	     -7.10999347	    -12.12147835	      3.71719884	     -9.69346325
      1.65000000	      6.55944134	     -3.00693948	      6.06233690	      1.19092190	      0.94587841	     -0.10832137	     -8.10079085	      5.06095262	     -9.83341876	     -6.88064946	      8.66228904	      0.50190238	     -5.26230089	     -4.14635481	    -11.37612369	    -13.83767617	     20.55216420	     -7.04112414	    -12.10489262	      3.73473804	     -9.68013242
      1.66000000	      6.56941038	     -3.01510034	      6.00883252	      1.19079988	      0.94593800	     -0.10816786	     -8.10449412	      5.07503178	     -9.75293917	     -6.86275314	      8.59050839	      0.42327594	     -5.25615175	     -4.16166610	    -11.45527468	    -13.86732250	     20.52685826	     -6.99438181	    -12.10862198	      3.75289310	     -9.69834152
      1.67000000	      6.58905103	     -3.01756055	      5.95026835	      1.19065499	      0.94602137	     -0.10801113	     -8.11528604	      5.08357613	     -9.67389535	     -6.84724013	      8.51434972	      0.33526409	     -5.25797363	     -4.16944989	    -11.52576274	    -13.90125110	     20.48472696	     -6.97774357	    -12.12592870	      3.76748961	     -9.71022240
      1.68000000	      6.61973411	     -3.01612332	      5.88095160	      1.19048388	      0.94613050	     -0.10784325	     -8.13298858	      5.08730249	     -9.58361698	     -6.83729559	      8.43484351	      0.22625963	     -5.26930622	     -4.17172625	    -11.59803365	    -13.93951507	     20.43534709	     -6.98140014	    -12.15879391	      3.78142708	     -9.71425731
      1.69000000	      6.66522545	     -3.01602271	      5.79182167	      1.19029836	      0.94627054	     -0.10763508	     -8.16236744	      5.09363636	     -9.46273580	     -6.83279872	      8.36784603	      0.03294118	     -5.30665558	     -4.17134355	    -11.66612963	    -13.96019060	     20.39872992	     -7.00143074	    -12.21086038	      3.79773614	     -9.70566509
      1.70000000	      6.70253862	     -3.00175634	      5.72433340	      1.19002499	      0.94639842	     -0.10744091	     -8.15658315	      5.08264696	     -9.41231136	     -6.87233722	      8.33361415	     -0.00320144	     -5.29822814	     -4.15950983	    -11.68456852	    -14.03571314	     20.34656407	     -7.02014960	    -12.26378107	      3.79849698	     -9.72970389
